<?xml version="1.0"?><svg width="1608" height="1523" xmlns="http://www.w3.org/2000/svg" xmlns:xlink="http://www.w3.org/1999/xlink">
 <title>tomato</title>
 <defs>
  <linearGradient y2="587.67126" x2="878.04169" y1="638.42285" x1="878.30585" gradientUnits="userSpaceOnUse" id="linearGradient20604" xlink:href="#linearGradient4326"/>
  <linearGradient y2="587.68933" x2="874.33466" y1="640.58234" x1="872.67297" gradientUnits="userSpaceOnUse" id="linearGradient20602" xlink:href="#linearGradient4326"/>
  <linearGradient y2="585.2215" x2="867.66956" y1="641.3125" x1="870.71393" gradientUnits="userSpaceOnUse" id="linearGradient20600" xlink:href="#linearGradient4326"/>
  <linearGradient y2="599.3725" x2="866.38599" y1="629.35236" x1="866.38599" gradientUnits="userSpaceOnUse" id="linearGradient20598" xlink:href="#linearGradient4326"/>
  <linearGradient y2="578.79523" x2="864.21893" y1="639.06525" x1="866.6889" gradientUnits="userSpaceOnUse" id="linearGradient20596" xlink:href="#linearGradient4326"/>
  <linearGradient y2="572.93176" x2="861.86334" y1="635.72388" x1="857.40021" gradientUnits="userSpaceOnUse" id="linearGradient20594" xlink:href="#linearGradient4326"/>
  <linearGradient y2="579.96216" x2="854.93127" y1="641.3125" x1="857.40021" gradientUnits="userSpaceOnUse" id="linearGradient20592" xlink:href="#linearGradient4326"/>
  <linearGradient id="linearGradient4326">
   <stop stop-color="#bf7a1b" id="stop4328" offset="0"/>
   <stop stop-color="#bf7a1b" stop-opacity="0" id="stop4330" offset="1"/>
  </linearGradient>
  <linearGradient y2="590.26312" x2="846.625" y1="642.90381" x1="853.86548" gradientUnits="userSpaceOnUse" id="linearGradient20590" xlink:href="#linearGradient4326"/>
  <linearGradient id="linearGradient4248">
   <stop stop-color="#e8a000" id="stop4250" offset="0"/>
   <stop stop-color="#eeeeec" stop-opacity="0.465649" id="stop4252" offset="1"/>
  </linearGradient>
  <linearGradient y2="571.14648" x2="860.37195" y1="654.86542" x1="856.5553" gradientTransform="matrix(0.9624041,0,0,0.9459152,38.277879,36.71999)" gradientUnits="userSpaceOnUse" id="linearGradient20588" xlink:href="#linearGradient4248"/>
 </defs>
 <metadata id="metadata2968">image/svg+xml</metadata>
 <g>
  <title>Layer 1</title>
  <g id="layer1">
   <g transform="matrix(15.016922112731878,-0.5829176086996736,0.34423781120909075,15.685824355336237,-966.0950263942573,5944.253941116149) " id="g4703">
    <path fill="#9c151c" fill-rule="evenodd" stroke-width="1px" d="m126.417671,-370.370972c1.234543,3.520538 -0.458771,12.322998 0.842606,14.475922c1.38073,2.284241 18.946419,-1.205933 28.999916,5.864624c10.053482,7.070526 21.749069,26.015259 13.926315,42.497498c-7.822754,16.482239 -32.405685,29.074707 -46.113365,29.082306c-24.728043,-0.193298 -39.526031,-6.898407 -48.272598,-31.387451c-2.231873,-9.404327 -2.747772,-12.116638 -0.153473,-22.368286c6.403061,-20.222504 22.770844,-22.875427 41.51503,-25.282135c7.662231,-1.213928 -2.570801,-11.764587 0.908112,-13.186829c2.926834,-0.269775 8.387192,-0.965302 8.347458,0.304352z" id="path4705"/>
    <path fill="#e10119" fill-rule="evenodd" stroke-width="1px" d="m124.702782,-369.227142c1.175491,3.352173 -0.436829,12.050171 3.01828,14.416687c3.092796,2.118347 18.040199,-1.148254 27.612816,5.584106c9.572617,6.73233 20.708801,24.770935 13.260208,40.464783c-7.448578,15.693878 -30.855682,27.684021 -43.907692,27.691254c-23.545288,-0.184052 -37.635452,-6.568451 -45.963669,-29.886139c-2.125122,-8.954498 -2.616348,-11.537079 -0.146133,-21.29837c6.096802,-19.255249 21.681671,-21.781281 39.529312,-24.072876c7.295731,-1.155853 -2.44783,-11.201843 0.86467,-12.556091c2.78685,-0.256866 5.77005,-1.552277 5.732208,-0.343353z" id="path4707"/>
    <path opacity="0.347328" fill="#9c151c" fill-rule="nonzero" stroke-width="0" stroke-linecap="round" stroke-miterlimit="4" stroke-dashoffset="758.400121" d="m109.737465,-352.621643c-17.373489,2.18042 -29.72908,19.250702 -27.609192,38.077179c2.119904,18.826508 17.918655,32.334045 35.29213,30.153625c0.387405,1.97934 -20.650345,-15.411072 -24.125397,-31.34613c-1.918915,-17.041473 4.045273,-32.648621 18.836975,-37.067963c-0.78772,0.035034 -1.599121,0.083466 -2.394516,0.183289z" id="path4709"/>
    <path opacity="0.347328" fill="#fcaf3e" fill-rule="nonzero" stroke-width="0" stroke-linecap="round" stroke-miterlimit="4" stroke-dashoffset="758.400121" d="m138.978241,-348.853424c-2.231201,0 -4.390869,0.271515 -6.46875,0.75c7.64296,6.123047 12.8125,17.836792 12.8125,31.25c0,7.636353 -1.677612,14.688171 -4.53125,20.5c14.364944,-0.885559 25.75,-12.291748 25.75,-26.21875c0,-14.503967 -12.359543,-26.281219 -27.5625,-26.28125z" id="path4711"/>
    <path fill="#639f1b" fill-rule="evenodd" stroke-width="1px" d="m119.578728,-368.745209c-0.175369,1.315308 1.341187,6.971405 1.578384,9.207214c0.237183,2.235809 0.838074,3.100739 -1.524673,3.498383c-2.362747,0.397644 -4.224457,0.793915 -6.358749,0.793365c-2.134308,-0.000549 -4.163132,-0.324371 -5.300781,1.287231c-1.13765,1.611603 -2.396378,2.894775 -3.315857,4.439911c-0.919464,1.545135 1.396973,0.54306 3.108353,0.411865c1.711395,-0.131226 6.249237,-2.904938 7.341248,-1.223572c1.09201,1.681366 -2.104507,10.917114 -0.789185,11.311707c1.315308,0.394592 5.962769,-8.856415 8.681076,-8.944122c2.718323,-0.087677 6.181969,8.286469 7.628822,8.417999c1.446854,0.131531 0.000015,-7.365753 1.052261,-7.628815c1.052246,-0.263062 4.472061,6.138123 5.261246,6.050446c0.7892,-0.087677 -0.740402,-6.004028 -0.526123,-6.576569c0.214279,-0.57254 3.367416,1.082672 1.889389,-0.467682c-1.478027,-1.550354 -1.227325,-3.841827 -4.002106,-4.48941c-2.77478,-0.647552 -6.972221,-0.809021 -8.76844,-3.358795c-1.796234,-2.549805 -0.72438,-10.290222 -1.469727,-12.613922c-0.745346,-0.436523 -3.90538,-0.486938 -4.485138,-0.115234z" id="path4713"/>
    <path opacity="0.507634" fill="#8ae234" fill-rule="evenodd" stroke-width="1px" d="m119.040565,-353.904388c2.186188,1.289276 -2.479782,-4.484741 -8.863953,0c-6.457321,4.536133 -3.326859,6.296417 -2.849121,4.115448c0.411819,-1.880066 9.65538,-5.328949 11.713074,-4.115448z" id="path4715"/>
    <path opacity="0.507634" fill="#8ae234" fill-rule="evenodd" stroke-width="1px" d="m124.123177,-352.813354c-2.152679,1.344513 2.339325,-2.923401 8.835564,1.39743c8.976318,9.010681 -5.907799,-1.985016 -8.835564,-1.39743z" id="path4718"/>
    <path fill="#77c127" fill-rule="evenodd" stroke-width="1px" d="m120.623421,-354.220947l-3.482269,4.115417l-1.266266,8.230835l4.748535,-12.346252z" id="path4720"/>
    <path fill="#77c127" fill-rule="evenodd" stroke-width="1px" id="path4722" d="m121.658623,-353.483337l4.595993,2.817749l3.780434,7.420135l-8.376427,-10.237885z"/>
   </g>
  </g>
 </g>
</svg>